<svg height="29" viewBox="0 0 85 29" width="85" xmlns="http://www.w3.org/2000/svg" xmlns:xlink="http://www.w3.org/1999/xlink"><mask id="a" fill="#fff"><path d="m0 .062h84.951v24.241h-84.951z" fill="#fff" fill-rule="evenodd"/></mask><g fill="#ed1b2f" fill-rule="evenodd"><path d="m19.213 22.043a.646.646 0 1 1 -1.292.002.646.646 0 0 1 1.292-.002m-.398-1.543a.247.247 0 1 1 -.495.001.247.247 0 0 1 .495 0m-1.785 1.294a.247.247 0 1 1 0 .495.247.247 0 0 1 0-.495m1.29 1.79a.247.247 0 1 1 .496 0 .247.247 0 0 1 -.495 0m1.784-1.295a.247.247 0 1 1 .001-.494.247.247 0 0 1 0 .494m2.744-1.006h-2.458l1.694-1.805c.38.526.648 1.14.764 1.805m-1.789-2.815-1.738 1.743-.074-2.477c.64.1 1.26.345 1.812.734m-3.249-.722v2.465l-1.8-1.699a4.317 4.317 0 0 1 1.8-.766m-2.806 1.794 1.737 1.744-2.47.075c.102-.642.345-1.265.733-1.819m-.72 3.26h2.457l-1.693 1.805a4.348 4.348 0 0 1 -.764-1.805m1.789 2.816 1.737-1.744.075 2.478a4.316 4.316 0 0 1 -1.812-.734m3.249.721v-2.465l1.799 1.699a4.318 4.318 0 0 1 -1.799.766m2.806-1.794-1.738-1.744 2.47-.075a4.348 4.348 0 0 1 -.732 1.818m50.938-2.5a.646.646 0 1 1 -1.292.002.646.646 0 0 1 1.292-.002m-.398-1.543a.247.247 0 1 1 -.495.001.247.247 0 0 1 .495 0m-1.785 1.294a.247.247 0 1 1 0 .495.247.247 0 0 1 0-.495m1.291 1.79a.247.247 0 1 1 .495 0 .247.247 0 0 1 -.495 0m1.784-1.295a.247.247 0 1 1 0-.494.247.247 0 0 1 0 .494m2.745-1.006h-2.458l1.694-1.805c.38.526.647 1.14.764 1.805m-1.789-2.815-1.738 1.743-.074-2.477c.64.1 1.26.345 1.812.734m-3.249-.722v2.465l-1.8-1.699a4.318 4.318 0 0 1 1.8-.766m-2.807 1.794 1.738 1.744-2.47.075a4.349 4.349 0 0 1 .732-1.819m-.72 3.26h2.458l-1.693 1.805a4.347 4.347 0 0 1 -.764-1.805m1.789 2.816 1.737-1.744.075 2.478a4.316 4.316 0 0 1 -1.812-.734m3.249.721v-2.465l1.799 1.699a4.318 4.318 0 0 1 -1.8.766m2.807-1.794-1.738-1.744 2.47-.075a4.347 4.347 0 0 1 -.732 1.818"/><path d="m18.568 27.017c-2.738 0-4.958-2.227-4.958-4.974 0-2.748 2.22-4.975 4.958-4.975s4.958 2.227 4.958 4.975c0 2.747-2.22 4.974-4.958 4.974m0-11.87c-3.796 0-6.873 3.087-6.873 6.896 0 3.808 3.077 6.895 6.873 6.895s6.873-3.087 6.873-6.895c0-3.809-3.077-6.896-6.873-6.896m53.855 11.87c-2.738 0-4.958-2.227-4.958-4.974 0-2.748 2.22-4.975 4.958-4.975s4.958 2.227 4.958 4.975c0 2.747-2.22 4.974-4.958 4.974m0-11.87c-3.796 0-6.873 3.087-6.873 6.896 0 3.808 3.077 6.895 6.873 6.895s6.873-3.087 6.873-6.895c0-3.809-3.077-6.896-6.873-6.896"/><path d="m52.75 9.132h-11.987l-2.378-7.209c10.56.19 15.506 5.297 15.506 5.297-1.712.095-1.141 1.912-1.141 1.912m-29.205-.242c-2.807-.286-3.853-.382-4.424-2.625-.57-2.242 5.898-3.722 9.323-4.008s7.515-.334 7.515-.334l1.332 7.206s-10.94.047-13.746-.239m61.406 7.015c0-1.098-.285-2.625-1.902-3.34-1.617-.716-5.28-2.052-12.13-3.007-6.849-.954-11.082-.716-11.082-.716s-4.804-3.15-7.706-4.628c-2.901-1.48-5.197-3.008-10.797-3.58-5.613-.572-15.649.24-15.649.24s-1.189-.813-1.522-.813-1.332.406-1.332.406v1.169s-6.183 2.053-13.128 5.344c0 0-2.806.382-4.614.573-1.807.19-3.377.19-3.377.19l-.618 1.147s.57.19.476.764c-.096.572-.428.668-.476 1.24-.048.573 0 2.29 0 2.29s-1.094.574-1.094 1.863v4.438c0 .381.761.62 1.142 1.097.38.477.808 1.432 2.235 1.67 1.427.239 7.89.845 7.89.845-.05-.35-.077-.709-.077-1.074 0-4.087 3.303-7.401 7.378-7.401 4.074 0 7.378 3.314 7.378 7.401 0 .796-.126 1.563-.357 2.281h39.813a7.418 7.418 0 0 1 -.357-2.28c0-4.088 3.303-7.402 7.378-7.402 4.074 0 7.377 3.314 7.377 7.401 0 .365-.026.724-.077 1.074 0 0-.063.56-.12.757 0 0 3.208.069 3.874-.361s1.141-.954 1.141-1.909c0-.954-.19-1.67 0-2.433.19-.764.333-2.148.333-3.245" mask="url(#a)" transform="translate(0 .02)"/></g></svg>